<svg id="Layer_1" data-name="Layer 1" xmlns="http://www.w3.org/2000/svg" width="500" height="100" viewBox="0 0 500 100"><defs><style>.cls-1{fill:none;}.cls-2{fill:#333;}</style></defs><title>arrow_sprite_ny_ny</title><rect class="cls-1" x="400" width="100" height="100"/><rect class="cls-2" x="462.1" y="19" width="9" height="41" transform="translate(233.61 445.69) rotate(-65)"/><rect class="cls-2" x="412.9" y="35" width="41" height="9" transform="translate(23.91 186.86) rotate(-25)"/><rect class="cls-2" x="462.1" y="38" width="9" height="41" transform="translate(216.39 456.66) rotate(-65)"/><rect class="cls-2" x="412.9" y="54" width="41" height="9" transform="translate(15.88 188.64) rotate(-25)"/><rect class="cls-1" width="100" height="100"/><rect class="cls-2" x="46.1" y="56" width="41" height="9" transform="translate(-19.33 33.81) rotate(-25)"/><rect class="cls-2" x="28.9" y="40" width="9" height="41" transform="translate(-35.55 65.2) rotate(-65)"/><rect class="cls-2" x="46.1" y="37" width="41" height="9" transform="translate(-11.3 32.03) rotate(-25)"/><rect class="cls-2" x="28.9" y="21" width="9" height="41" transform="translate(-18.33 54.23) rotate(-65)"/><rect class="cls-1" x="100" width="100" height="100"/><rect class="cls-2" x="147.6" y="56" width="41" height="9" transform="translate(-10.47 54.91) rotate(-18)"/><rect class="cls-2" x="127.4" y="40" width="9" height="41" transform="translate(33.6 167.25) rotate(-72)"/><rect class="cls-2" x="147.6" y="37" width="41" height="9" transform="translate(-4.6 53.98) rotate(-18)"/><rect class="cls-2" x="127.4" y="21" width="9" height="41" transform="translate(51.67 154.12) rotate(-72)"/><rect class="cls-1" x="300" width="100" height="100"/><rect class="cls-2" x="363.6" y="19" width="9" height="41" transform="translate(216.78 377.38) rotate(-72)"/><rect class="cls-2" x="311.4" y="35" width="41" height="9" transform="translate(4.04 104.5) rotate(-18)"/><rect class="cls-2" x="363.6" y="38" width="9" height="41" transform="translate(198.71 390.51) rotate(-72)"/><rect class="cls-2" x="311.4" y="54" width="41" height="9" transform="translate(-1.83 105.43) rotate(-18)"/><rect class="cls-1" x="200" width="100" height="100"/><rect class="cls-2" x="247.6" y="56" width="41" height="9"/><rect class="cls-2" x="211.4" y="56" width="41" height="9"/><rect class="cls-2" x="247.6" y="37" width="41" height="9"/><rect class="cls-2" x="211.4" y="37" width="41" height="9"/></svg>
