<svg id="Layer_1" data-name="Layer 1" xmlns="http://www.w3.org/2000/svg" width="500" height="100" viewBox="0 0 500 100"><defs><style>.cls-1{fill:none;}.cls-2{fill:#333;}</style></defs><title>arrow_sprite_ny</title><rect class="cls-1" width="100" height="100"/><rect class="cls-2" x="12.9" y="35" width="41" height="9" transform="translate(-13.56 17.82) rotate(-25)"/><rect class="cls-2" x="62.1" y="19" width="9" height="41" transform="translate(2.65 83.17) rotate(-65)"/><rect class="cls-2" x="12.9" y="54" width="41" height="9" transform="translate(-21.59 19.6) rotate(-25)"/><rect class="cls-2" x="62.1" y="38" width="9" height="41" transform="translate(-14.57 94.14) rotate(-65)"/><rect class="cls-1" x="400" width="100" height="100"/><rect class="cls-2" x="428.9" y="40" width="9" height="41" transform="translate(195.41 427.73) rotate(-65)"/><rect class="cls-2" x="446.1" y="56" width="41" height="9" transform="translate(18.15 202.86) rotate(-25)"/><rect class="cls-2" x="428.9" y="21" width="9" height="41" transform="translate(212.63 416.76) rotate(-65)"/><rect class="cls-2" x="446.1" y="37" width="41" height="9" transform="translate(26.18 201.08) rotate(-25)"/><rect class="cls-1" x="300" width="100" height="100"/><rect class="cls-2" x="327.4" y="40" width="9" height="41" transform="translate(171.8 357.46) rotate(-72)"/><rect class="cls-2" x="347.6" y="56" width="41" height="9" transform="translate(-0.68 116.71) rotate(-18)"/><rect class="cls-2" x="327.4" y="21" width="9" height="41" transform="translate(189.87 344.33) rotate(-72)"/><rect class="cls-2" x="347.6" y="37" width="41" height="9" transform="translate(5.19 115.78) rotate(-18)"/><rect class="cls-1" x="100" width="100" height="100"/><rect class="cls-2" x="111.4" y="35" width="41" height="9" transform="translate(-5.75 42.69) rotate(-18)"/><rect class="cls-2" x="163.6" y="19" width="9" height="41" transform="matrix(0.31, -0.95, 0.95, 0.31, 78.59, 187.17)"/><rect class="cls-2" x="111.4" y="54" width="41" height="9" transform="translate(-11.62 43.62) rotate(-18)"/><rect class="cls-2" x="163.6" y="38" width="9" height="41" transform="translate(60.52 200.3) rotate(-72)"/><rect class="cls-1" x="200" width="100" height="100"/><rect class="cls-2" x="211.4" y="56" width="41" height="9"/><rect class="cls-2" x="247.6" y="56" width="41" height="9"/><rect class="cls-2" x="211.4" y="37" width="41" height="9"/><rect class="cls-2" x="247.6" y="37" width="41" height="9"/></svg>
