<svg id="Layer_1" data-name="Layer 1" xmlns="http://www.w3.org/2000/svg" xmlns:xlink="http://www.w3.org/1999/xlink" width="2003.83" height="1080" viewBox="0 0 2003.83 1080"><defs><style>.cls-1{fill:#4d4d4d;}.cls-2{fill:#fff;stroke:#000;stroke-miterlimit:10;stroke-width:3px;}.cls-3{fill:#333;}.cls-4,.cls-5{fill:none;stroke:#333;stroke-linejoin:round;}.cls-4{stroke-linecap:round;stroke-width:6px;}.cls-5{stroke-linecap:square;stroke-width:4px;}</style></defs><title>telefon3</title><rect x="1397.67" y="22" width="511" height="1046" rx="40.58"/><path class="cls-1" d="M1868.09,26.5a36.08,36.08,0,0,1,36.08,36.08h0v964.84a36.08,36.08,0,0,1-36.08,36.08H1438.25a36.08,36.08,0,0,1-36.08-36.08h0V62.58a36.08,36.08,0,0,1,36.08-36.08h429.84m0-9H1438.25a45.12,45.12,0,0,0-45.08,45.08v964.84a45.12,45.12,0,0,0,45.08,45.08h429.84a45.13,45.13,0,0,0,45.08-45.08V62.58A45.13,45.13,0,0,0,1868.09,17.5Z"/><rect class="cls-2" x="1418.67" y="130" width="470" height="836"/><circle cx="1653.17" cy="1013.5" r="37.5"/><path class="cls-3" d="M1653.17,977.5a36,36,0,1,1-36,36,36,36,0,0,1,36-36m0-3a39,39,0,1,0,39,39A39,39,0,0,0,1653.17,974.5Z"/><line class="cls-4" x1="1614.67" y1="73" x2="1690.67" y2="73"/><circle class="cls-1" cx="1578.17" cy="73.5" r="7"/><line class="cls-5" x1="1393.67" y1="130" x2="1393.67" y2="154"/><line class="cls-5" x1="1394.17" y1="189.5" x2="1394.17" y2="236.5"/><line class="cls-5" x1="1394.17" y1="249.5" x2="1394.17" y2="296.5"/><image width="646" height="1150" transform="translate(1420.67 122.5) scale(0.73)" xlink:href="../../../Sk%C3%A6rmbillede%202019-01-08%20kl.%2018.47.09.png"/><rect x="75.72" y="22" width="511" height="1046" rx="40.58"/><path class="cls-1" d="M546.14,26.5a36.08,36.08,0,0,1,36.08,36.08h0v964.84a36.08,36.08,0,0,1-36.08,36.08H116.3a36.08,36.08,0,0,1-36.08-36.08h0V62.58A36.08,36.08,0,0,1,116.3,26.5H546.14m0-9H116.3A45.12,45.12,0,0,0,71.22,62.58v964.84a45.12,45.12,0,0,0,45.08,45.08H546.14a45.13,45.13,0,0,0,45.08-45.08V62.58A45.13,45.13,0,0,0,546.14,17.5Z"/><rect class="cls-2" x="96.72" y="130" width="470" height="836"/><circle cx="331.22" cy="1013.5" r="37.5"/><path class="cls-3" d="M331.22,977.5a36,36,0,1,1-36,36,36,36,0,0,1,36-36m0-3a39,39,0,1,0,39,39A39,39,0,0,0,331.22,974.5Z"/><line class="cls-4" x1="292.72" y1="73" x2="368.72" y2="73"/><circle class="cls-1" cx="256.22" cy="73.5" r="7"/><line class="cls-5" x1="71.72" y1="130" x2="71.72" y2="154"/><line class="cls-5" x1="72.22" y1="189.5" x2="72.22" y2="236.5"/><line class="cls-5" x1="72.22" y1="249.5" x2="72.22" y2="296.5"/><image width="646" height="1150" transform="translate(92.72 128) scale(0.75 0.73)" xlink:href="../../../Sk%C3%A6rmbillede%202019-01-08%20kl.%2018.49.09.png"/><rect x="744.5" y="22" width="511" height="1046" rx="40.58"/><path class="cls-1" d="M1214.92,26.5A36.08,36.08,0,0,1,1251,62.58h0v964.84a36.08,36.08,0,0,1-36.08,36.08H785.08A36.08,36.08,0,0,1,749,1027.42h0V62.58A36.08,36.08,0,0,1,785.08,26.5h429.84m0-9H785.08A45.13,45.13,0,0,0,740,62.58v964.84a45.13,45.13,0,0,0,45.08,45.08h429.84a45.13,45.13,0,0,0,45.08-45.08V62.58A45.13,45.13,0,0,0,1214.92,17.5Z"/><rect class="cls-2" x="765.5" y="130" width="470" height="836"/><circle cx="1000" cy="1013.5" r="37.5"/><path class="cls-3" d="M1000,977.5a36,36,0,1,1-36,36,36,36,0,0,1,36-36m0-3a39,39,0,1,0,39,39A39,39,0,0,0,1000,974.5Z"/><line class="cls-4" x1="961.5" y1="73" x2="1037.5" y2="73"/><circle class="cls-1" cx="925" cy="73.5" r="7"/><line class="cls-5" x1="740.5" y1="130" x2="740.5" y2="154"/><line class="cls-5" x1="741" y1="189.5" x2="741" y2="236.5"/><line class="cls-5" x1="741" y1="249.5" x2="741" y2="296.5"/><image width="616" height="1142" transform="translate(763.44 127.5) scale(0.76 0.73)" xlink:href="../../../Sk%C3%A6rmbillede%202019-01-08%20kl.%2018.49.21.png"/></svg>
