<svg id="Layer_1" data-name="Layer 1" xmlns="http://www.w3.org/2000/svg" width="887.5" height="1080" viewBox="0 0 887.5 1080"><defs><style>.cls-1,.cls-2{fill:#e0ab7c;}.cls-1,.cls-6{stroke:#000;stroke-miterlimit:10;}.cls-1{stroke-width:9px;}.cls-3{fill:#ffe0bd;}.cls-4{fill:#f2cfb1;}.cls-5{fill:#4d4d4d;}.cls-6{fill:#fff;stroke-width:3px;}.cls-7{fill:#333;}.cls-8,.cls-9{fill:none;stroke:#333;stroke-linejoin:round;}.cls-8{stroke-linecap:round;stroke-width:6px;}.cls-9{stroke-linecap:square;stroke-width:4px;}</style></defs><title>telefon</title><g id="Layer_9" data-name="Layer 9"><polyline class="cls-1" points="180 469 188.5 459.5 183 326 133 349 135.5 466.5 180 469"/><polygon class="cls-1" points="182.5 460.5 102.5 568.5 177.5 645.5 198.5 644.5 182.5 460.5"/><polygon class="cls-1" points="111.5 751.5 99.5 719.5 197.5 648.5 205.5 775.5 111.5 751.5"/><path class="cls-2" d="M695.5,358.5s116,131,148,150-73,155-73,155l-123,29Z"/><path d="M695.5,358.5c22.28,23.69,44.65,47.29,67.33,70.56,11.37,11.6,22.75,23.2,34.35,34.53q8.72,8.51,17.59,16.78c5.92,5.51,11.92,10.94,18.1,16,3.08,2.57,6.24,5,9.43,7.22l2.41,1.52.62.4.82.55a9.64,9.64,0,0,1,1.56,1.22A15.65,15.65,0,0,1,852,513.8c1.56,4.81,1.34,9.43.79,13.75A76.36,76.36,0,0,1,849.82,540a176.81,176.81,0,0,1-9.53,23c-3.6,7.42-7.52,14.64-11.59,21.76q-12.27,21.32-26.12,41.53c-9.2,13.52-18.66,26.77-28.58,39.83l-.93,1.24-1.55.37-30.74,7.31L710,682.33l-61.53,14.38-6.19,1.45.92-6.28c4.14-28.14,8.44-56.28,12.73-84.39s8.82-56.09,13.23-84l13.37-83.05,6.54-41.13Zm0,0-5.59,42.68-5.46,42.37L673.82,527.5c-3.59,27.77-7.09,55.45-10.77,83s-7.41,55.08-11.27,82.61l-5.27-4.83L708,673.67l30.74-7.29,30.76-7.19L767,660.8c9.79-12.79,19.29-26,28.43-39.31s18-26.86,26.21-40.76c4.08-6.94,8-14,11.59-21.14a170.34,170.34,0,0,0,9.37-21.89,69.54,69.54,0,0,0,2.89-11.18,33.24,33.24,0,0,0,.44-5.46,18,18,0,0,0-.69-4.94,8.57,8.57,0,0,0-2.24-3.63,3.71,3.71,0,0,0-.82-.66l-.43-.32-.66-.44-2.7-1.79q-5.13-3.75-9.79-7.79c-6.25-5.37-12.2-11-18.07-16.66S799,473.31,793.29,467.47c-11.31-11.73-22.49-23.56-33.42-35.61Q727,395.77,695.5,358.5Z"/><path class="cls-1" d="M313.5,1064.5s-5,15,36,40,538-4,538-4l-164-440Z"/></g><g id="Layer_11" data-name="Layer 11"><path class="cls-3" d="M712.5,646.5l-16,48,2.5,328.17s-31.5,21.83-29.5,67.83,215,8,215,8l-149-456Z"/></g><g id="Layer_8" data-name="Layer 8"><path class="cls-3" d="M669.5,1087.5c5-14,30-52,30-52l2-363s-4-23,21-64"/><path d="M669.5,1087.5a112.43,112.43,0,0,1,6.2-13.7c2.33-4.44,4.78-8.82,7.27-13.17q7.51-13.05,15.53-25.79l-.19.65q-.43-45.37-.48-90.75V899.36L698,854c.2-30.25.38-60.5.77-90.75q.22-22.69.61-45.38l.79-45.37v.24a32.21,32.21,0,0,1-.2-4.5l.1-2.19c0-.72.13-1.44.19-2.17.12-1.45.38-2.87.57-4.3s.52-2.84.82-4.25a109.78,109.78,0,0,1,5.08-16.45,158.82,158.82,0,0,1,7.09-15.61c1.35-2.52,2.77-5,4.16-7.48l4.49-7.28L718.38,616l-3.79,7.65a157.18,157.18,0,0,0-6.47,15.74,108.69,108.69,0,0,0-4.4,16.35c-.24,1.39-.43,2.78-.65,4.17a39.39,39.39,0,0,0-.4,4.18c0,.7-.08,1.4-.11,2.09v2.09a33.45,33.45,0,0,0,.27,4v.24l.29,45.38q.11,22.68.11,45.37,0,45.38-.23,90.75l-.34,45.38-.48,45.37q-.55,45.38-1.48,90.75v.37l-.19.28q-8.43,12.39-16.42,25.13-4,6.36-7.73,12.86A112.8,112.8,0,0,0,669.5,1087.5Z"/><path class="cls-3" d="M852.5,1149.5c24-1,40-7,76-24s36-36,36-36l-7-609s-54-133-60-157-16-41-28-50-24-34-33-38-35-83-35-83a44.71,44.71,0,0,0-20-21c-15-8-39,18-39,18s-37,27-38,88,69,142,69,142l17,104s17,40-43,88-14,181-14,181"/><path d="M852.5,1149.5a119.75,119.75,0,0,0,22.93-3.16,154.41,154.41,0,0,0,22-7.27c7.16-2.9,14.2-6.09,21.21-9.35,3.5-1.63,7-3.27,10.47-5l5.15-2.63c1.69-.93,3.33-1.94,5-2.9a68,68,0,0,0,17.57-14.72,36.07,36.07,0,0,0,5.85-9.75,17.69,17.69,0,0,0,1.25-5.41l-.09-5.8-.71-46.38-2.65-185.55L958,666l-2.28-185.55.14.68C941.92,447,928.22,412.74,915,378.29l-5-12.94q-2.46-6.47-4.84-13c-3.18-8.68-6.37-17.31-9-26.33-.69-2.28-1.22-4.44-1.83-6.65s-1.28-4.36-2-6.51a127.17,127.17,0,0,0-5-12.64,87.24,87.24,0,0,0-6.63-11.77,58.09,58.09,0,0,0-8.61-10.22c-.82-.74-1.62-1.51-2.5-2.18l-1.3-1c-.48-.38-1-.75-1.43-1.15a51,51,0,0,1-5.09-5.09c-3.13-3.55-5.9-7.31-8.61-11.06s-5.34-7.54-8.09-11.16c-1.38-1.8-2.79-3.57-4.29-5.19a27.38,27.38,0,0,0-2.31-2.26,12.17,12.17,0,0,0-2.44-1.71l-.31-.16c-.22-.11-.42-.23-.63-.35a6.49,6.49,0,0,1-.93-.73,12.27,12.27,0,0,1-1.38-1.5,32.69,32.69,0,0,1-2.08-3c-1.25-2.05-2.34-4.13-3.38-6.22-2.08-4.2-3.94-8.45-5.74-12.72-3.58-8.55-6.87-17.19-10.06-25.87s-6.24-17.39-9.21-26.13l-2.21-6.57-.27-.82-.06-.17v-.11l-.16-.35c-.22-.49-.46-1-.71-1.46a30.57,30.57,0,0,0-1.66-2.84,44,44,0,0,0-8.74-9.93c-.81-.75-1.74-1.37-2.61-2.06s-1.83-1.24-2.75-1.85l-1.44-.83a14.86,14.86,0,0,0-1.42-.76,7.69,7.69,0,0,0-1.37-.55l-.7-.22-.74-.14c-4-.72-8.31.53-12.26,2.4a61,61,0,0,0-11.3,7.21,93.61,93.61,0,0,0-10,9.09l-.12.12-.14.11c-1,.73-2,1.61-3,2.49s-1.93,1.79-2.86,2.73c-1.86,1.88-3.65,3.84-5.34,5.89a103.46,103.46,0,0,0-9.2,13,116.24,116.24,0,0,0-12.4,29.33A133.41,133.41,0,0,0,706.27,236c-.08,1.34,0,2.66,0,4s0,2.65.13,4c.22,2.64.39,5.29.84,7.92a122.38,122.38,0,0,0,3.33,15.63c5.84,20.61,15.56,40,26.58,58.47q8.34,13.85,17.73,27c6.25,8.76,12.78,17.39,19.68,25.6l.26.31.07.38,16.75,104-.08-.27a30,30,0,0,1,1.32,4.65,46.37,46.37,0,0,1,.71,4.68,55.68,55.68,0,0,1,.08,9.4,60.45,60.45,0,0,1-1.41,9.28,72.58,72.58,0,0,1-2.67,9c-4.36,11.71-11.4,22.2-19.57,31.48a153.13,153.13,0,0,1-13.11,13.12c-4.51,4.24-9.64,7.79-14,12A71.08,71.08,0,0,0,731.71,591a87.57,87.57,0,0,0-7.61,16.62,114.56,114.56,0,0,0-4.52,17.77,155.61,155.61,0,0,0-2.11,18.26,234.2,234.2,0,0,0,.94,36.79A362.64,362.64,0,0,0,733.5,752.5a352.59,352.59,0,0,1-9.76-35.59,334.87,334.87,0,0,1-6.06-36.42,234.85,234.85,0,0,1-1.23-36.93,155.63,155.63,0,0,1,2-18.4,119.74,119.74,0,0,1,4.43-18,90,90,0,0,1,7.6-16.94,73.11,73.11,0,0,1,11.36-14.73c4.47-4.41,9.49-7.93,13.92-12.16a151.08,151.08,0,0,0,12.85-13.08c8-9.21,14.83-19.54,19-31a69,69,0,0,0,2.55-8.71,58.13,58.13,0,0,0,1.32-9,54.09,54.09,0,0,0-.12-9,43.9,43.9,0,0,0-.7-4.43,27.85,27.85,0,0,0-1.2-4.22l-.06-.15v-.12l-17.25-104,.33.69c-7.05-8.3-13.63-16.9-20-25.71s-12.34-17.84-18-27.11c-11.18-18.49-21.15-38-27.18-59.07a125.62,125.62,0,0,1-3.45-16.05c-.46-2.71-.65-5.46-.88-8.2-.13-1.37-.09-2.76-.14-4.13s-.07-2.76,0-4.12a136.75,136.75,0,0,1,4.6-32.44,119.51,119.51,0,0,1,12.72-30.24,107.8,107.8,0,0,1,9.5-13.46c1.75-2.13,3.6-4.16,5.54-6.13,1-1,2-1.94,3-2.87a35.21,35.21,0,0,1,3.24-2.73l-.26.23a101,101,0,0,1,10.44-9.49,64.92,64.92,0,0,1,12-7.65,33.06,33.06,0,0,1,6.89-2.45,19.41,19.41,0,0,1,7.59-.27l1,.19.94.29a11.19,11.19,0,0,1,1.84.73,17,17,0,0,1,1.63.87l1.56.9c1,.65,2,1.31,3,2a26.67,26.67,0,0,1,2.82,2.21,48.17,48.17,0,0,1,9.49,10.75c.66,1,1.25,2.06,1.83,3.13.27.54.55,1.08.8,1.65l.2.44.11.29.09.24.27.83,2.21,6.54q4.47,13.07,9.22,26c3.19,8.64,6.48,17.23,10,25.69,1.79,4.22,3.64,8.42,5.66,12.49,1,2,2.07,4,3.22,5.93a28.25,28.25,0,0,0,1.82,2.65,9.44,9.44,0,0,0,1,1,2.72,2.72,0,0,0,.42.34.57.57,0,0,1,.13.08l.45.23a15.57,15.57,0,0,1,3.23,2.22,33.43,33.43,0,0,1,2.63,2.56c1.64,1.77,3.11,3.61,4.54,5.47,2.84,3.72,5.47,7.51,8.16,11.23s5.42,7.38,8.39,10.75a48.28,48.28,0,0,0,4.7,4.68c.41.36.84.67,1.26,1L872,273a34.61,34.61,0,0,1,2.72,2.36,62.16,62.16,0,0,1,9.2,10.88,90.14,90.14,0,0,1,7,12.3,122.41,122.41,0,0,1,5.2,13.06c.76,2.21,1.41,4.46,2.07,6.7s1.18,4.56,1.82,6.69c2.54,8.68,5.73,17.39,8.87,26q2.37,6.5,4.82,13l4.9,12.93c13.19,34.43,26.84,68.7,40.63,102.9l.13.33v.35l2,185.56,1.74,185.56,1.62,185.56.35,46.39.05,5.8a18.82,18.82,0,0,1-1.38,5.82,37,37,0,0,1-6.1,10,70.53,70.53,0,0,1-17.93,14.8c-1.69,1-3.35,2-5.06,2.88l-5.2,2.61c-3.49,1.67-7,3.28-10.52,4.89-7,3.21-14.12,6.34-21.32,9.16a152.88,152.88,0,0,1-22.1,7A120,120,0,0,1,852.5,1149.5Z"/><path class="cls-3" d="M181.5,101.5s-54-30-74-31-44,4-47,13-12,32,4,56,30,43,62,60,16,18,55,36S181.5,101.5,181.5,101.5Z"/><path d="M181.5,101.5c-4.55-2.36-9.13-4.64-13.74-6.88s-9.21-4.46-13.86-6.6c-9.29-4.25-18.69-8.33-28.31-11.65a91.87,91.87,0,0,0-14.57-4l-1.82-.25L107.38,72c-1.26,0-2.52-.07-3.78-.07-2.52,0-5,.1-7.57.28A105.93,105.93,0,0,0,81.09,74.3a49.47,49.47,0,0,0-13.85,4.93c-2,1.2-3.87,2.72-4.62,4.41-.08.23-.16.36-.26.68l-.3.91-.59,1.82c-.4,1.21-.75,2.41-1.12,3.61a71.13,71.13,0,0,0-2.73,14.62,51.84,51.84,0,0,0,1,14.65,52.88,52.88,0,0,0,5.11,13.72c2.42,4.18,5.38,8.45,8.27,12.63s5.87,8.3,9,12.27,6.4,7.81,9.88,11.44a133.4,133.4,0,0,0,11,10.26A152.54,152.54,0,0,0,127,197c2.23,1.25,4.54,2.48,6.78,3.78l3.35,2c1.12.67,2.2,1.43,3.3,2.14a73.38,73.38,0,0,1,6.36,4.74c2,1.7,4,3.55,5.75,5.31a60.28,60.28,0,0,0,5.59,4.88c1,.77,2,1.46,3,2.17s2.09,1.35,3.15,2l1.59,1,1.65.92c1.1.61,2.18,1.25,3.31,1.84,2.26,1.14,4.47,2.37,6.78,3.44l3.43,1.66a26.14,26.14,0,0,0,3.27,1.4c2.11.67,4.19.82,5.78-.12a6.23,6.23,0,0,0,1.18-.79,12,12,0,0,0,1-1.14l.47-.64.42-.72a14.51,14.51,0,0,0,.76-1.53,30.93,30.93,0,0,0,2-6.93,86.63,86.63,0,0,0,1.1-15c0-5.06-.27-10.14-.62-15.21-.75-10.16-2-20.3-3.54-30.41C189.91,141.6,185.89,121.51,181.5,101.5Zm0,0c1.38,4.93,2.68,9.89,3.95,14.86s2.42,10,3.57,15c2.29,10,4.4,20,6.26,30.13s3.35,20.26,4.38,30.52c.51,5.12.87,10.27,1,15.46a92,92,0,0,1-.86,15.65,35,35,0,0,1-2.07,7.86,17.06,17.06,0,0,1-.92,1.93l-.53,1-.65.91a12.4,12.4,0,0,1-1.51,1.73,10.72,10.72,0,0,1-2,1.4,9.35,9.35,0,0,1-2.27.93c-.39.1-.79.14-1.19.21l-.6.09H186.3l-1.12-.17a13.21,13.21,0,0,1-2.15-.52,29.29,29.29,0,0,1-3.81-1.56l-3.5-1.64c-2.35-1.07-4.64-2.29-7-3.44-1.15-.58-2.29-1.24-3.43-1.85l-1.71-.94-1.69-1c-1.12-.68-2.25-1.33-3.34-2.09s-2.2-1.46-3.25-2.29a62.65,62.65,0,0,1-6-5.15c-1.89-1.8-3.68-3.47-5.57-5.06a70.18,70.18,0,0,0-6-4.42c-1-.67-2.07-1.38-3.15-2l-3.22-2c-2.19-1.26-4.41-2.43-6.65-3.68a156.39,156.39,0,0,1-26-17.21,139,139,0,0,1-11.4-10.71c-3.59-3.78-6.94-7.77-10.15-11.84S71,153.26,68,149a147.4,147.4,0,0,1-8.45-13.13,56.81,56.81,0,0,1-5.41-15A56,56,0,0,1,53.27,105a73.69,73.69,0,0,1,3.08-15.49c.4-1.24.8-2.49,1.22-3.7L58.21,84l.31-.91c.1-.28.3-.74.45-1.1a11.32,11.32,0,0,1,2.85-3.63,21.4,21.4,0,0,1,3.47-2.43,53.15,53.15,0,0,1,15.06-5.09A102.15,102.15,0,0,1,95.85,69q3.89-.17,7.79-.08c1.3,0,2.59.09,3.89.17l2,.2,2,.33a90.26,90.26,0,0,1,14.91,4.53c9.62,3.72,18.89,8.15,28.06,12.75q6.87,3.47,13.63,7.13C172.6,96.42,177.07,98.92,181.5,101.5Z"/><path class="cls-3" d="M189.5,322.5s-100,43-109,60-2,82-5,89-15,47-13,56,5,26,33,25,58-5,69-26c7.66-14.62,17.25-47.65,16.31-76.49-.42-12.6-2.84-24.39-8.31-33.51-18-30-21-29-21-29"/><path d="M189.5,322.5c-20.62,9.61-41.17,19.38-61.22,30.06-10,5.32-20,10.78-29.5,16.88a98.27,98.27,0,0,0-13.4,10,23.2,23.2,0,0,0-2.6,2.92,8.69,8.69,0,0,0-.89,1.57,16.69,16.69,0,0,0-.73,1.81,44.21,44.21,0,0,0-1.85,7.94A144.11,144.11,0,0,0,78,410.41c-.17,5.63-.19,11.29-.11,17,.13,11.34.68,22.66.76,34.14v4.35a36.58,36.58,0,0,1-.38,4.56,7.77,7.77,0,0,1-.31,1.35c-.07.24-.17.55-.24.73l-.18.45c-.24.61-.48,1.26-.71,1.91-.47,1.31-.92,2.64-1.35,4-1.73,5.35-3.32,10.79-4.81,16.24s-2.85,10.93-4,16.43c-.57,2.74-1.08,5.5-1.45,8.22-.17,1.36-.33,2.72-.38,4q0,.94,0,1.89a8,8,0,0,0,.08.84,3.81,3.81,0,0,0,.15.85,55.22,55.22,0,0,0,2.16,7.87A22.74,22.74,0,0,0,71,541.9a20.81,20.81,0,0,0,5.84,4.76,27.84,27.84,0,0,0,7.36,2.56c5.24,1.08,10.67.95,16.37.65s11.25-.71,16.82-1.39a118.8,118.8,0,0,0,16.42-3.1A63.17,63.17,0,0,0,149,539.24a36.09,36.09,0,0,0,11.84-10.72,30.67,30.67,0,0,0,2.06-3.44c.62-1.24,1.27-2.46,1.82-3.74l.86-1.9.8-1.94c.55-1.29,1.05-2.6,1.53-3.92A194.19,194.19,0,0,0,176.76,481c1-5.54,1.78-11.14,2.27-16.75.1-1.41.26-2.81.3-4.22l.19-4.22c0-2.81.06-5.63-.06-8.44a85.1,85.1,0,0,0-2.2-16.67,52.27,52.27,0,0,0-6.33-15.52q-4.27-7.38-8.87-14.55c-1.53-2.39-3.11-4.75-4.77-7.05-.84-1.14-1.7-2.27-2.62-3.35-.46-.55-.94-1.06-1.44-1.56a8.91,8.91,0,0,0-.8-.7,1.93,1.93,0,0,0-.93-.48,2,2,0,0,1,1,.44,9,9,0,0,1,.83.67c.53.48,1,1,1.52,1.5a41.36,41.36,0,0,1,2.78,3.25c1.77,2.23,3.46,4.53,5.1,6.86,3.25,4.68,6.36,9.46,9.37,14.29a54,54,0,0,1,7,15.72,87.35,87.35,0,0,1,2.82,17c.22,2.86.22,5.74.27,8.61l-.08,4.31c0,1.43-.14,2.86-.21,4.3-.35,5.72-1,11.43-1.9,17.09a192.67,192.67,0,0,1-8.41,33.36c-.48,1.36-1,2.72-1.51,4.06l-.79,2-.87,2c-.55,1.34-1.21,2.65-1.84,4a36,36,0,0,1-2.25,3.91A40.26,40.26,0,0,1,151.23,543,66.93,66.93,0,0,1,135,549.77a121.5,121.5,0,0,1-17,3.4c-5.72.78-11.45,1.21-17.17,1.52s-11.69.52-17.62-.69a32.33,32.33,0,0,1-8.69-3,26.23,26.23,0,0,1-7.32-5.93A27.85,27.85,0,0,1,62.53,537a58.9,58.9,0,0,1-2.38-8.55c-.08-.3-.16-.79-.23-1.25a10.87,10.87,0,0,1-.11-1.28,23.42,23.42,0,0,1,0-2.37c.07-1.54.25-3,.44-4.46.4-2.91.94-5.75,1.53-8.57,1.2-5.64,2.61-11.19,4.12-16.71s3.15-11,4.94-16.45c.45-1.37.91-2.73,1.4-4.1.25-.69.5-1.38.79-2.08l.22-.54a2.45,2.45,0,0,0,.08-.29,3.66,3.66,0,0,0,.16-.73,34.34,34.34,0,0,0,.34-3.93c.06-1.37.08-2.77.09-4.18,0-11.27-.4-22.68-.41-34.09,0-5.71,0-11.42.3-17.15A149.3,149.3,0,0,1,75.48,393a48.26,48.26,0,0,1,2.17-8.61,18.18,18.18,0,0,1,.91-2.13,10.13,10.13,0,0,1,1.25-2.1,24.46,24.46,0,0,1,3.11-3.4,95.11,95.11,0,0,1,14.13-10.11c9.79-6,19.91-11.22,30.12-16.29s20.56-9.81,31-14.46Q166,332.42,173.8,329T189.5,322.5Z"/><path class="cls-3" d="M114,554s-40.5,23.5-39.5,44.5a150.21,150.21,0,0,0,9,45c3,8-2,66,0,73s1,28,35,24,46-10,56-32,11-89,2-109-8-23-5-27"/><path d="M114,554c-3.85,2.44-7.57,5.09-11.19,7.86s-7.12,5.66-10.45,8.74a86.52,86.52,0,0,0-9.23,9.91A46.73,46.73,0,0,0,79.37,586a28,28,0,0,0-2.67,6,18.14,18.14,0,0,0-.87,6.29c.14,2.24.32,4.51.57,6.75q.7,6.75,2,13.4c.87,4.43,1.9,8.83,3.15,13.15.61,2.17,1.3,4.32,2,6.45.36,1.06.74,2.12,1.13,3.18l.6,1.57.31,1c.08.33.13.63.19,1a52.75,52.75,0,0,1,.63,7.1c.08,2.31.12,4.62.12,6.91,0,4.6-.1,9.17-.22,13.74-.24,9.14-.61,18.26-.81,27.35-.06,2.27-.09,4.54-.11,6.8s0,4.51.12,6.67a12.28,12.28,0,0,0,.13,1.54v.36l.06.27v.28l.12.48c.32,1.26.51,2.38.72,3.49a40.93,40.93,0,0,0,1.6,6.25,18.81,18.81,0,0,0,2.88,5.3,15.86,15.86,0,0,0,4.45,3.87,27.51,27.51,0,0,0,12,3.17,69.16,69.16,0,0,0,13.18-.69l3.37-.42,3.35-.49c2.24-.3,4.44-.72,6.66-1.11a89.28,89.28,0,0,0,13-3.29,43.39,43.39,0,0,0,11.45-5.92,37.76,37.76,0,0,0,8.77-9.37c.58-.93,1.22-1.81,1.75-2.78l1.62-2.88c1-2,2-4,2.78-6a84,84,0,0,0,3.52-12.83c.89-4.4,1.58-8.86,2.14-13.35,1.12-9,1.68-18,1.95-27.11a268.53,268.53,0,0,0-.54-27.21c-.33-4.52-.8-9-1.56-13.49a54.34,54.34,0,0,0-3.61-13c-1.75-4.22-3.46-8.48-4.8-12.87a29.44,29.44,0,0,1-1.28-6.77,9.06,9.06,0,0,1,.51-3.42,10.79,10.79,0,0,1,1.78-2.92,11,11,0,0,0-1.61,3,9.13,9.13,0,0,0-.31,3.33,28.64,28.64,0,0,0,1.63,6.56c1.53,4.27,3.41,8.42,5.35,12.54a53.6,53.6,0,0,1,4.24,13.17c.95,4.51,1.6,9.06,2.1,13.63a265.38,265.38,0,0,1,1.37,27.47,268.81,268.81,0,0,1-1.35,27.51c-1,9.15-2.25,18.31-5.43,27.3-.86,2.28-1.91,4.35-2.91,6.46l-1.68,3.11c-.55,1-1.25,2-1.87,3a42.16,42.16,0,0,1-9.7,10.63,46.67,46.67,0,0,1-12.7,6.69A93.47,93.47,0,0,1,135,740.43c-2.28.41-4.56.85-6.84,1.17l-3.42.51-3.42.45a73.91,73.91,0,0,1-14.1.77,42,42,0,0,1-7.22-1.09,26.42,26.42,0,0,1-7-2.82,20.85,20.85,0,0,1-5.79-5.08,23.38,23.38,0,0,1-3.61-6.68,44.3,44.3,0,0,1-1.77-7c-.22-1.13-.41-2.26-.64-3.21l-.09-.35-.13-.56L80.9,716l-.06-.48c-.09-.67-.12-1.26-.16-1.87-.22-4.77-.06-9.3.09-13.9.32-9.15.81-18.25,1.16-27.35.19-4.55.34-9.1.42-13.63q.06-3.39,0-6.77A51.85,51.85,0,0,0,82,645.5a3.39,3.39,0,0,0-.13-.72l-.16-.6-.58-1.64c-.38-1.09-.75-2.19-1.09-3.29-.69-2.21-1.36-4.42-1.93-6.66-1.19-4.46-2.16-9-2.9-13.53s-1.3-9.13-1.65-13.72c-.18-2.3-.29-4.58-.38-6.9a20.34,20.34,0,0,1,1.21-7.16,30,30,0,0,1,3.12-6.36,49.3,49.3,0,0,1,4.13-5.63,82.71,82.71,0,0,1,9.82-9.72A147.2,147.2,0,0,1,114,554Z"/><path class="cls-3" d="M107.33,745S79.5,843.5,75.5,846.5s-3,12,9,20,62,14,72-3,29-59,27-79-8-39-6-44"/><path d="M107.33,745c-3.29,13.64-6.87,27.21-10.51,40.77s-7.47,27.05-11.6,40.49c-1,3.36-2.09,6.72-3.2,10.07q-.83,2.52-1.74,5a52.87,52.87,0,0,1-2.12,5.11c-.14.25-.25.47-.43.75l-.3.43a5.28,5.28,0,0,1-.62.63c-.15.19-.37.3-.49.53a3.5,3.5,0,0,0-.61,1.46,7.78,7.78,0,0,0,.57,3.93,15,15,0,0,0,2.32,3.93,26.64,26.64,0,0,0,3.34,3.46c.62.52,1.27,1,1.91,1.53l2,1.42a24.33,24.33,0,0,0,4.26,2.08,67.24,67.24,0,0,0,9.74,2.79,115.85,115.85,0,0,0,20.42,2.44,80.12,80.12,0,0,0,20.26-1.56,32.17,32.17,0,0,0,9.09-3.44,15.24,15.24,0,0,0,3.5-2.85,13.79,13.79,0,0,0,1.31-1.73l1.29-2.24a292.73,292.73,0,0,0,17.71-37.74,180.65,180.65,0,0,0,6.48-19.78l1.16-5c.27-1.69.6-3.38.83-5.08l.22-2.54.12-1.28V784.8c-.06-.86-.16-1.73-.23-2.6-.61-6.94-1.72-13.85-2.84-20.77-.55-3.46-1.14-6.93-1.61-10.41-.21-1.75-.43-3.5-.51-5.26a13.19,13.19,0,0,1,.46-5.23,13,13,0,0,0-.08,5.2c.2,1.73.54,3.45.88,5.16.68,3.44,1.46,6.85,2.22,10.28,1.53,6.85,2.94,13.75,3.92,20.75.12.88.25,1.74.34,2.63l.15,2.73a10.39,10.39,0,0,0,.06,1.37l-.07,1.35-.14,2.7c-.16,1.79-.44,3.55-.65,5.33l-1,5.25a173.73,173.73,0,0,1-6,20.38q-3.54,10-7.88,19.67c-2.88,6.45-5.94,12.82-9.37,19l-1.3,2.33a17.83,17.83,0,0,1-1.83,2.48,20.25,20.25,0,0,1-4.59,3.81,37.18,37.18,0,0,1-10.49,4,83.89,83.89,0,0,1-21.55,1.8,120.12,120.12,0,0,1-21.29-2.66,72.79,72.79,0,0,1-10.45-3.07,28.54,28.54,0,0,1-5.16-2.57L81,866.91c-.72-.59-1.45-1.18-2.16-1.79A31.1,31.1,0,0,1,74.93,861,19.67,19.67,0,0,1,72,855.79a12.14,12.14,0,0,1-.69-6.37,7.79,7.79,0,0,1,1.49-3.3,7.14,7.14,0,0,1,1.34-1.35s-.15.1-.17.15a.61.61,0,0,1,.07-.1l.24-.4a47.7,47.7,0,0,0,2-4.58c.62-1.6,1.21-3.24,1.81-4.87,1.18-3.28,2.32-6.59,3.44-9.9,4.43-13.27,8.71-26.63,13-40S103,758.34,107.33,745Z"/><path class="cls-4" d="M798.67,149S787,180,763,193s18,58,18,58,51,3,50-9"/><path d="M798.67,149a95.58,95.58,0,0,1-6.37,14.47c-.65,1.15-1.28,2.32-1.95,3.46l-2.07,3.39L786,173.61c-.75,1.1-1.58,2.14-2.37,3.21a78.62,78.62,0,0,1-11,11.63,55.43,55.43,0,0,1-6.57,4.72l-3.3,2.05a12.3,12.3,0,0,0-2.57,2.26,11.24,11.24,0,0,0-2.57,6.14,20.93,20.93,0,0,0,.57,7.14,57.32,57.32,0,0,0,5.85,14,124.91,124.91,0,0,0,8.48,13c3.05,4.18,6.31,8.28,9.73,12.13l-1.16-.55c4.39.29,8.83.51,13.26.59s8.85.11,13.27-.06a97,97,0,0,0,13.17-1.27,28.22,28.22,0,0,0,6.3-1.82,8.79,8.79,0,0,0,2.69-1.77,4.54,4.54,0,0,0,.91-1.34A4,4,0,0,0,831,242a4.28,4.28,0,0,1-.13,1.67,4.79,4.79,0,0,1-.81,1.51,8.92,8.92,0,0,1-2.64,2.17,28.14,28.14,0,0,1-6.33,2.45,85.55,85.55,0,0,1-13.31,2.2q-6.69.65-13.42.77c-4.49.09-9,.11-13.46-.07h-.68l-.48-.52a140.36,140.36,0,0,1-19.14-25.5,56.75,56.75,0,0,1-6.21-15,24.52,24.52,0,0,1-.57-8.49,14.72,14.72,0,0,1,3.62-8.08,15.93,15.93,0,0,1,3.38-2.85l3.45-2a31.55,31.55,0,0,0,3.23-2c1-.75,2.1-1.45,3.12-2.22a82.11,82.11,0,0,0,11.12-10.7,107.11,107.11,0,0,0,9.3-12.52A121.44,121.44,0,0,0,798.67,149Z"/><path class="cls-4" d="M64,518.33l.39-1c2.74-7.12,19.31-48.8,32.11-48.8,14,0,6-34,6-34s1-13-12-11-13,7-13,7L76,453.67,74.5,467.5,72,481.67Z"/><path d="M64,518.33a222.13,222.13,0,0,1,9.15-23.2c1.72-3.79,3.63-7.51,5.7-11.15A66.93,66.93,0,0,1,86,473.49,27,27,0,0,1,90.76,469c.49-.3,1-.63,1.48-.91a11.21,11.21,0,0,1,1.67-.72,7.37,7.37,0,0,1,1.86-.41l1.49-.15a4.52,4.52,0,0,0,2.11-.84,4.46,4.46,0,0,0,.86-.76,7.85,7.85,0,0,0,.71-1,14.9,14.9,0,0,0,1.64-5.24,51.24,51.24,0,0,0,0-12,99.13,99.13,0,0,0-2-12v-.6a13.29,13.29,0,0,0-.31-3.27,9.8,9.8,0,0,0-1.18-2.93,6.31,6.31,0,0,0-2.08-2c-.21-.12-.45-.19-.67-.29a3.46,3.46,0,0,0-.7-.26l-.75-.17-.38-.09H93.29a2.89,2.89,0,0,0-.83,0l-1.72.15c-1.22.21-2.43.42-3.62.71a17,17,0,0,0-6.29,2.7,5.26,5.26,0,0,0-1,1,2.87,2.87,0,0,0-.28.48c-.07.12-.12.36-.1.22l-.27,3.88-.58,7.75L78,450l-.29,3.88-.47,3.87c-.66,5.15-1.16,10.32-2.29,15.4l-1.52,7.63c-.24,1.3-.56,2.47-.86,3.69l-.9,3.64c-1.22,4.84-2.58,9.7-3.9,14.74S65.16,513.07,64,518.33Zm0,0c1-4.81,2-9.69,2.84-14.73s1.72-10.27,2.7-15.51l.75-3.93c.24-1.3.53-2.63.7-3.89l1.18-7.61c1-5.05,1.27-10.19,1.76-15.29l.36-3.83.21-3.85.42-7.7.42-7.69.24-3.85a4.65,4.65,0,0,1,.4-1.64,7.68,7.68,0,0,1,.68-1.18,9.51,9.51,0,0,1,1.7-1.77,20.48,20.48,0,0,1,7.78-3.48c1.32-.34,2.64-.59,4-.82.7-.08,1.43-.14,2.14-.21a5.06,5.06,0,0,1,1.1,0l1.12,0h.56l.57.11,1.13.25a6.22,6.22,0,0,1,1.12.4,10.81,10.81,0,0,1,1.09.51A10.4,10.4,0,0,1,102.4,426a13.44,13.44,0,0,1,1.69,4.22,17.3,17.3,0,0,1,.32,2.16,17,17,0,0,1,0,2.26V434a104.38,104.38,0,0,1,2,12.55,53.3,53.3,0,0,1-.23,12.87A18.07,18.07,0,0,1,104,466a8.27,8.27,0,0,1-6.23,4.1l-.94.06h-.71a2.78,2.78,0,0,0-.58.06l-.6.15a8.83,8.83,0,0,0-1.2.48c-.4.19-.79.45-1.19.67a22.88,22.88,0,0,0-4.35,3.87,49.33,49.33,0,0,0-3.8,4.72c-1.21,1.63-2.35,3.34-3.45,5.07-2.2,3.47-4.21,7.07-6.17,10.71C70.86,503.22,67.32,510.72,64,518.33Z"/><path class="cls-4" d="M88.5,842.5s22-17,35-14,17-20,17-20,2-41-10-42-26-1-29,13-13,51-14,54S85.5,839.5,88.5,842.5Z"/><path d="M88.5,842.5a96.5,96.5,0,0,1,14-9.62,65.43,65.43,0,0,1,7.75-3.69,33.35,33.35,0,0,1,4.14-1.35,25.49,25.49,0,0,1,4.34-.79,16.45,16.45,0,0,1,4.54.14l1,.15a4.7,4.7,0,0,0,.92.09,7.76,7.76,0,0,0,1.8-.13,10,10,0,0,0,5.93-4.16,27.64,27.64,0,0,0,3.66-7.1,49.43,49.43,0,0,0,2.15-7.84v.21a171.65,171.65,0,0,0-.46-18c-.24-3-.59-6-1.11-8.88a37.66,37.66,0,0,0-2.34-8.33,12.55,12.55,0,0,0-2-3.31c-.21-.18-.4-.41-.61-.57a3.52,3.52,0,0,0-.64-.42,5.32,5.32,0,0,0-.66-.26l-.35-.07a2,2,0,0,0-.43-.07,80.34,80.34,0,0,0-8.91-.35,29.66,29.66,0,0,0-8.47,1.27,13.63,13.63,0,0,0-6.66,4.32,13.34,13.34,0,0,0-2,3.47l-.21.47-.14.5-.3,1c-.2.64-.37,1.42-.54,2.16-.69,3-1.47,6-2.25,8.91-1.57,5.91-3.17,11.8-4.88,17.66s-3.41,11.72-5.21,17.55c-.9,2.92-1.79,5.83-2.83,8.73a12,12,0,0,0-1,4.33A6.21,6.21,0,0,0,88.5,842.5Zm0,0a6.39,6.39,0,0,1-2.18-4,11.66,11.66,0,0,1,.63-4.61c.81-2.91,1.46-5.9,2.19-8.86l4.23-17.79,4.17-17.8,2-8.89c.16-.74.3-1.46.53-2.29l.33-1.2.16-.6.24-.58a16.84,16.84,0,0,1,2.46-4.45,17.56,17.56,0,0,1,8.31-5.7,33.63,33.63,0,0,1,9.55-1.53,86,86,0,0,1,9.36.31,5.36,5.36,0,0,1,.7.1l.77.15a8.41,8.41,0,0,1,1.47.56,13.08,13.08,0,0,1,1.27.82,14.26,14.26,0,0,1,1.06,1,15.8,15.8,0,0,1,2.77,4.43A41.56,41.56,0,0,1,141,780.8c.53,3.09.87,6.18,1.09,9.27a158.94,158.94,0,0,1,.14,18.52v.21a47.78,47.78,0,0,1-2.52,8.43,30.5,30.5,0,0,1-4.37,7.77,16,16,0,0,1-3.39,3.19,11,11,0,0,1-4.48,1.79,10.31,10.31,0,0,1-2.42.06,7.8,7.8,0,0,1-1.18-.17l-1.06-.22a13.8,13.8,0,0,0-3.9-.29,31.28,31.28,0,0,0-8,1.59,59.92,59.92,0,0,0-7.76,3.13A111.36,111.36,0,0,0,88.5,842.5Z"/><path class="cls-4" d="M85.5,704.5s17-32,34-28,13-21,13-21-4-33-16-40-32,14-32,14Z"/><path d="M85.5,704.5a90.6,90.6,0,0,1,10.7-16.67,54.52,54.52,0,0,1,7-7.17,30.3,30.3,0,0,1,4.16-2.94,20.68,20.68,0,0,1,4.75-2.13,15.07,15.07,0,0,1,5.29-.71h.68l.67.1,1.3.2,1.12.19,1.11.09a8.22,8.22,0,0,0,4.06-.78,7.36,7.36,0,0,0,2.82-2.85c1.41-2.49,1.85-5.66,2-8.77a41.45,41.45,0,0,0-.12-4.73c-.07-.78-.16-1.57-.27-2.34l-.36-2.41A135.89,135.89,0,0,0,126,634.69a61.35,61.35,0,0,0-3.55-8.88,24.82,24.82,0,0,0-5.26-7.37,8.78,8.78,0,0,0-3.49-2,10.41,10.41,0,0,0-4.12-.29,24.42,24.42,0,0,0-8.57,3,70.85,70.85,0,0,0-15.18,11.61l.49-1.24q.06,9.15-.06,18.31c-.06,6.12-.16,12.25-.29,18.48l-.32,18.89C85.52,691.53,85.48,698,85.5,704.5Zm0,0c-.15-6-.35-12-.6-18.16l-.82-18.61c-.3-6.27-.57-12.64-.79-19s-.43-12.79-.56-19.19v-.72l.51-.52a80.53,80.53,0,0,1,7.47-6.83,56.11,56.11,0,0,1,8.43-5.73,28.09,28.09,0,0,1,10-3.5,14.42,14.42,0,0,1,5.66.4,12.74,12.74,0,0,1,5,2.82,27.63,27.63,0,0,1,6.16,8.6,66.82,66.82,0,0,1,3.72,9.46A121.94,121.94,0,0,1,134,653.06l.33,2.48c.11.87.18,1.71.24,2.57a44.07,44.07,0,0,1,0,5.14,28.23,28.23,0,0,1-.72,5.17,17.36,17.36,0,0,1-2,5.05,10.32,10.32,0,0,1-4.19,3.91,11.18,11.18,0,0,1-5.56.93l-1.34-.15-1.31-.27-1.13-.22-.55-.11h-.55a12.26,12.26,0,0,0-4.47.41,18.53,18.53,0,0,0-4.32,1.71,30.56,30.56,0,0,0-4,2.57,53,53,0,0,0-7.16,6.56A102.82,102.82,0,0,0,85.5,704.5Z"/></g><rect x="186.2" y="14.5" width="511" height="1046" rx="40.58"/><path class="cls-5" d="M656.62,19A36.08,36.08,0,0,1,692.7,55.08h0v964.84A36.08,36.08,0,0,1,656.62,1056H226.78a36.08,36.08,0,0,1-36.08-36.08h0V55.08A36.08,36.08,0,0,1,226.78,19H656.62m0-9H226.78A45.13,45.13,0,0,0,181.7,55.08v964.84A45.13,45.13,0,0,0,226.78,1065H656.62a45.13,45.13,0,0,0,45.08-45.08V55.08A45.13,45.13,0,0,0,656.62,10Z"/><rect class="cls-6" x="207.2" y="122.5" width="470" height="836"/><circle cx="441.7" cy="1006" r="37.5"/><path class="cls-7" d="M441.7,970a36,36,0,1,1-36,36,36,36,0,0,1,36-36m0-3a39,39,0,1,0,39,39A39,39,0,0,0,441.7,967Z"/><line class="cls-8" x1="403.2" y1="65.5" x2="479.2" y2="65.5"/><circle class="cls-5" cx="366.7" cy="66" r="7"/><line class="cls-9" x1="182.2" y1="122.5" x2="182.2" y2="146.5"/><line class="cls-9" x1="182.7" y1="182" x2="182.7" y2="229"/><line class="cls-9" x1="182.7" y1="242" x2="182.7" y2="289"/></svg>
