<?xml version="1.0" standalone="no"?>
<!DOCTYPE svg PUBLIC "-//W3C//DTD SVG 20010904//EN"
 "http://www.w3.org/TR/2001/REC-SVG-20010904/DTD/svg10.dtd">
<svg version="1.0" xmlns="http://www.w3.org/2000/svg"
 width="512.000000pt" height="512.000000pt" viewBox="0 0 512.000000 512.000000"
 preserveAspectRatio="xMidYMid meet">
<metadata>
Created by potrace 1.11, written by Peter Selinger 2001-2013
</metadata>
<g transform="translate(0.000000,512.000000) scale(0.100000,-0.100000)"
fill="#000000" stroke="none">
<path d="M3660 2550 c-337 -47 -592 -247 -655 -512 -19 -81 -19 -218 0 -291
49 -190 196 -330 441 -423 37 -14 180 -56 318 -95 296 -82 410 -131 475 -205
42 -48 71 -121 71 -179 0 -44 -27 -131 -55 -175 -151 -239 -670 -271 -875 -54
-55 58 -85 115 -96 182 l-7 42 -177 0 -177 0 9 -67 c25 -184 131 -357 281
-459 239 -162 661 -200 981 -88 110 38 195 91 277 173 125 125 180 260 180
445 -1 157 -44 273 -144 382 -124 135 -272 206 -625 299 -118 31 -236 65 -263
75 -139 55 -214 113 -255 195 -24 49 -26 64 -22 133 3 51 12 91 25 117 23 45
104 125 149 148 161 81 434 79 583 -6 86 -49 181 -177 181 -244 0 -23 0 -23
171 -23 l172 0 -6 58 c-28 258 -238 470 -542 548 -113 28 -303 39 -415 24z"/>
<path d="M140 1365 l0 -1165 165 0 165 0 0 846 c0 603 3 845 11 842 6 -2 165
-381 353 -843 l343 -840 139 -3 139 -2 341 837 c188 460 346 839 353 841 8 3
11 -210 11 -837 l0 -841 170 0 170 0 0 1165 0 1165 -214 0 -214 0 -46 -112
c-26 -62 -192 -468 -370 -903 -208 -508 -328 -791 -338 -793 -11 -2 -29 30
-62 110 -25 62 -192 469 -370 903 l-323 790 -212 3 -211 2 0 -1165z"/>
<path d="M4703 515 c-130 -65 -151 -231 -43 -329 79 -71 187 -73 267 -3 116
102 85 281 -59 341 -54 23 -107 20 -165 -9z"/>
</g>
</svg>
